<svg width="104" height="104" viewBox="0 0 104 104" fill="none" xmlns="http://www.w3.org/2000/svg">
<g clip-path="url(#clip0_2492_701)">
<circle cx="52" cy="52" r="52" fill="black"/>
<path d="M14.1641 87.6639L51.9997 52L2.1875 66.9427C4.53736 74.7892 8.68862 81.8561 14.1641 87.6639Z" fill="url(#paint0_linear_2492_701)"/>
<path d="M52.0003 104C56.1186 104 60.1243 103.519 63.9665 102.613L51.9996 52L40.0327 102.614C43.8756 103.519 47.8813 104 52.0003 104Z" fill="url(#paint1_linear_2492_701)"/>
<path d="M101.812 66.9427L51.9995 52L89.8351 87.6639C95.3098 81.8561 99.4619 74.7892 101.812 66.9427Z" fill="url(#paint2_linear_2492_701)"/>
<path d="M89.8351 16.3359L51.9995 51.9991L101.812 37.0571C99.4619 29.2099 95.3098 22.143 89.8351 16.3359Z" fill="url(#paint3_linear_2492_701)"/>
<path d="M2.1875 37.0579L51.9997 51.9998L14.1641 16.3359C8.68937 22.1437 4.53736 29.2106 2.1875 37.0579Z" fill="url(#paint4_linear_2492_701)"/>
<path d="M52.0003 0C47.8813 0 43.8756 0.480981 40.0327 1.38667L51.9996 52L63.9665 1.38667C60.1243 0.480981 56.1186 0 52.0003 0Z" fill="url(#paint5_linear_2492_701)"/>
<path d="M36.8952 101.622L52.0004 51.8672L16.2041 89.5953C22.1433 95.2358 29.2581 99.3042 36.8952 101.622Z" fill="url(#paint6_linear_2492_701)"/>
<path d="M77.8454 96.9886C81.419 94.9416 84.6557 92.5322 87.5397 89.8369L52 51.8672L66.7714 101.735C70.5558 100.61 74.2711 99.0356 77.8454 96.9886Z" fill="url(#paint7_linear_2492_701)"/>
<path d="M102.65 40.0703L52 51.8667L102.556 64.0038C104.42 56.2428 104.51 48.0466 102.65 40.0703Z" fill="url(#paint8_linear_2492_701)"/>
<path d="M67.106 2.11328L52 51.8682L87.7963 14.1401C81.8572 8.4996 74.7431 4.43115 67.106 2.11328Z" fill="url(#paint9_linear_2492_701)"/>
<path d="M1.35124 63.6647L52 51.8676L1.44427 39.7305C-0.420161 47.4915 -0.509444 55.6876 1.35124 63.6647Z" fill="url(#paint10_linear_2492_701)"/>
<path d="M26.157 6.74603C22.5827 8.79377 19.346 11.2024 16.4619 13.8985L52.0001 51.8675L37.2288 2C33.4451 3.12479 29.7305 4.6983 26.157 6.74603Z" fill="url(#paint11_linear_2492_701)"/>
<path d="M52.7112 66.8424C44.8544 66.8424 38.4834 60.4489 38.4834 52.6146C38.4834 44.7577 44.8769 38.3867 52.7112 38.3867C60.5681 38.3867 66.9391 44.7802 66.9391 52.6146C66.9616 60.4714 60.5681 66.8424 52.7112 66.8424Z" fill="url(#paint12_linear_2492_701)"/>
<path d="M52.7107 65.1295C59.6236 65.1295 65.2276 59.5255 65.2276 52.6126C65.2276 45.6997 59.6236 40.0957 52.7107 40.0957C45.7979 40.0957 40.1938 45.6997 40.1938 52.6126C40.1938 59.5255 45.7979 65.1295 52.7107 65.1295Z" fill="url(#paint13_linear_2492_701)"/>
<path d="M52.7121 63.3538C58.6427 63.3538 63.4505 58.546 63.4505 52.6154C63.4505 46.6847 58.6427 41.877 52.7121 41.877C46.7814 41.877 41.9736 46.6847 41.9736 52.6154C41.9736 58.546 46.7814 63.3538 52.7121 63.3538Z" fill="url(#paint14_linear_2492_701)"/>
<path d="M43.9591 55.3371C44.3743 55.6013 44.9406 55.7901 45.5446 55.7901C46.4507 55.7901 46.9792 55.2993 46.9792 54.6198C46.9792 53.978 46.6017 53.6005 45.6579 53.2608C44.5254 52.8455 43.8458 52.2792 43.8458 51.2977C43.8458 50.2029 44.7519 49.4102 46.0731 49.4102C46.7904 49.4102 47.2812 49.5612 47.6209 49.7499L47.3567 50.4672C47.1302 50.3539 46.6772 50.1274 46.0354 50.1274C45.0916 50.1274 44.7141 50.6937 44.7141 51.1845C44.7141 51.8262 45.1294 52.166 46.1109 52.5057C47.2812 52.9588 47.8852 53.525 47.8852 54.5443C47.8852 55.6013 47.0924 56.5451 45.4691 56.5451C44.7896 56.5451 44.0723 56.3563 43.6948 56.0921L43.9591 55.3371Z" fill="url(#paint15_linear_2492_701)"/>
<path d="M49.1691 49.5983C49.5844 49.5228 50.1506 49.4473 50.8679 49.4473C51.7362 49.4473 52.4157 49.636 52.7932 50.0135C53.1707 50.3533 53.3972 50.8441 53.3972 51.4481C53.3972 52.0898 53.2085 52.5806 52.8687 52.9204C52.3779 53.4111 51.6229 53.6754 50.7546 53.6754C50.4904 53.6754 50.2261 53.6754 50.0374 53.5999V56.3935H49.1313V49.5983H49.1691ZM50.0751 52.9204C50.2639 52.9581 50.5281 52.9959 50.8301 52.9959C51.9249 52.9959 52.5667 52.4673 52.5667 51.5236C52.5667 50.6175 51.9249 50.1645 50.9434 50.1645C50.5659 50.1645 50.2639 50.2023 50.1129 50.24V52.9204H50.0751Z" fill="url(#paint16_linear_2492_701)"/>
<path d="M55.5095 49.5215V56.4677H54.6035V49.5215H55.5095Z" fill="url(#paint17_linear_2492_701)"/>
<path d="M57.0957 56.4325V49.4863H58.0774L60.3051 52.9972C60.8338 53.8277 61.2113 54.545 61.5512 55.2622H61.5889C61.5134 54.3185 61.4756 53.4879 61.4756 52.4309V49.5241H62.3063V56.4703H61.4001L59.2102 52.9594C58.7193 52.2044 58.2662 51.4116 57.9264 50.6566H57.8886C57.9264 51.5249 57.9641 52.3554 57.9641 53.5257V56.4703H57.0957V56.4325Z" fill="url(#paint18_linear_2492_701)"/>
<path d="M52 0.5C65.7501 0.500001 78.6767 5.85063 88.4268 15.5742V15.5732C98.1497 25.2962 103.5 38.2229 103.5 52C103.5 65.7771 98.1497 78.7038 88.4268 88.4268C78.7038 98.1497 65.7771 103.5 52 103.5C38.4645 103.5 25.7019 98.315 16.0322 88.8789L15.5732 88.4268C5.8503 78.7038 0.5 65.7771 0.5 52C0.500001 38.4391 5.71005 25.7269 15.1484 16.0322L15.6006 15.5732C25.3236 5.85039 38.2499 0.5 52 0.5Z" stroke="#FFEFCE"/>
</g>
<defs>
<linearGradient id="paint0_linear_2492_701" x1="40.5" y1="57.5" x2="7.5" y2="77" gradientUnits="userSpaceOnUse">
<stop stop-color="#79A3FF"/>
<stop offset="1" stop-color="#0233AE"/>
</linearGradient>
<linearGradient id="paint1_linear_2492_701" x1="52" y1="65.5" x2="51.9996" y2="104" gradientUnits="userSpaceOnUse">
<stop stop-color="#3FFF5F"/>
<stop offset="1" stop-color="#008D34"/>
</linearGradient>
<linearGradient id="paint2_linear_2492_701" x1="63" y1="57.5" x2="98.5" y2="78.5" gradientUnits="userSpaceOnUse">
<stop stop-color="#EDCB64"/>
<stop offset="1" stop-color="#A79101"/>
</linearGradient>
<linearGradient id="paint3_linear_2492_701" x1="60" y1="46.5" x2="96.5" y2="26.5" gradientUnits="userSpaceOnUse">
<stop stop-color="#F3002C"/>
<stop offset="1" stop-color="#8D001A"/>
</linearGradient>
<linearGradient id="paint4_linear_2492_701" x1="42.5" y1="46" x2="6.5" y2="27" gradientUnits="userSpaceOnUse">
<stop stop-color="#C04CFF"/>
<stop offset="1" stop-color="#60008D"/>
</linearGradient>
<linearGradient id="paint5_linear_2492_701" x1="51.9996" y1="2.74452e-08" x2="53" y2="38.5" gradientUnits="userSpaceOnUse">
<stop stop-color="#B40364"/>
<stop offset="1" stop-color="#FF89DC"/>
</linearGradient>
<linearGradient id="paint6_linear_2492_701" x1="44" y1="63.5" x2="26" y2="95" gradientUnits="userSpaceOnUse">
<stop stop-color="#6EFFFA"/>
<stop offset="1" stop-color="#04A7A1"/>
</linearGradient>
<linearGradient id="paint7_linear_2492_701" x1="78.5" y1="97.5" x2="59.4953" y2="65.5028" gradientUnits="userSpaceOnUse">
<stop stop-color="#79B210"/>
<stop offset="0.998871" stop-color="#ACFF63"/>
</linearGradient>
<linearGradient id="paint8_linear_2492_701" x1="65" y1="53.5" x2="104" y2="53" gradientUnits="userSpaceOnUse">
<stop stop-color="#FF8F57"/>
<stop offset="1" stop-color="#DC5E04"/>
</linearGradient>
<linearGradient id="paint9_linear_2492_701" x1="78" y1="7" x2="58.001" y2="39.5006" gradientUnits="userSpaceOnUse">
<stop stop-color="#9D022E"/>
<stop offset="0.998871" stop-color="#FF6994"/>
</linearGradient>
<linearGradient id="paint10_linear_2492_701" x1="-1.56947e-07" y1="53.5" x2="40.0138" y2="52.6466" gradientUnits="userSpaceOnUse">
<stop stop-color="#21069B"/>
<stop offset="0.998871" stop-color="#4242F0"/>
</linearGradient>
<linearGradient id="paint11_linear_2492_701" x1="45" y1="41.5" x2="27.5" y2="7" gradientUnits="userSpaceOnUse">
<stop stop-color="#FF57F1"/>
<stop offset="1" stop-color="#B102AE"/>
</linearGradient>
<linearGradient id="paint12_linear_2492_701" x1="52.721" y1="66.8024" x2="52.721" y2="38.3404" gradientUnits="userSpaceOnUse">
<stop stop-color="#C38B2C"/>
<stop offset="0.0403663" stop-color="#A07124"/>
<stop offset="0.0816219" stop-color="#805A1D"/>
<stop offset="0.1273" stop-color="#A37425"/>
<stop offset="0.1741" stop-color="#C38B2C"/>
<stop offset="0.1886" stop-color="#CC973C"/>
<stop offset="0.2525" stop-color="#F0CA80"/>
<stop offset="0.2825" stop-color="#FEDE9A"/>
<stop offset="0.3016" stop-color="#F2CD83"/>
<stop offset="0.3329" stop-color="#E1B564"/>
<stop offset="0.3655" stop-color="#D4A24B"/>
<stop offset="0.3996" stop-color="#CA953A"/>
<stop offset="0.4363" stop-color="#C58E2F"/>
<stop offset="0.4801" stop-color="#C38B2C"/>
<stop offset="0.4891" stop-color="#C89235"/>
<stop offset="0.5358" stop-color="#DFB361"/>
<stop offset="0.5777" stop-color="#F0CA80"/>
<stop offset="0.6131" stop-color="#FAD993"/>
<stop offset="0.6376" stop-color="#FEDE9A"/>
<stop offset="0.6975" stop-color="#D4A34C"/>
<stop offset="0.726" stop-color="#C38B2C"/>
<stop offset="0.7752" stop-color="#A07124"/>
<stop offset="0.8254" stop-color="#805A1D"/>
<stop offset="0.8686" stop-color="#A37425"/>
<stop offset="0.9126" stop-color="#C38B2C"/>
<stop offset="0.9173" stop-color="#C89235"/>
<stop offset="0.9415" stop-color="#DFB361"/>
<stop offset="0.9632" stop-color="#F0CA80"/>
<stop offset="0.9816" stop-color="#FAD993"/>
<stop offset="0.9943" stop-color="#FEDE9A"/>
</linearGradient>
<linearGradient id="paint13_linear_2492_701" x1="52.7205" y1="62.7997" x2="52.7205" y2="37.7685" gradientUnits="userSpaceOnUse">
<stop stop-color="#230533"/>
<stop offset="0.246" stop-color="#250636"/>
<stop offset="0.3929" stop-color="#2C093E"/>
<stop offset="0.5137" stop-color="#370E4C"/>
<stop offset="0.6204" stop-color="#481560"/>
<stop offset="0.7177" stop-color="#5D1F7B"/>
<stop offset="0.8083" stop-color="#772A9B"/>
<stop offset="0.8936" stop-color="#9638C1"/>
<stop offset="0.9727" stop-color="#B847EC"/>
<stop offset="1" stop-color="#C64DFD"/>
</linearGradient>
<linearGradient id="paint14_linear_2492_701" x1="52.7288" y1="43.8449" x2="52.7133" y2="63.3488" gradientUnits="userSpaceOnUse">
<stop stop-color="white"/>
<stop offset="0.99" stop-color="white" stop-opacity="0"/>
</linearGradient>
<linearGradient id="paint15_linear_2492_701" x1="53.0178" y1="56.7208" x2="53.0178" y2="49.5746" gradientUnits="userSpaceOnUse">
<stop stop-color="#F6C067"/>
<stop offset="0.1247" stop-color="#F3BD62"/>
<stop offset="0.2621" stop-color="#EBB355"/>
<stop offset="0.4052" stop-color="#DEA23F"/>
<stop offset="0.4787" stop-color="#D69731"/>
<stop offset="0.4794" stop-color="#D89A35"/>
<stop offset="0.4881" stop-color="#E8B761"/>
<stop offset="0.4959" stop-color="#F4CC80"/>
<stop offset="0.5025" stop-color="#FBD993"/>
<stop offset="0.507" stop-color="#FEDE9A"/>
<stop offset="0.9925" stop-color="#FFFAEF"/>
</linearGradient>
<linearGradient id="paint16_linear_2492_701" x1="53.0182" y1="56.7201" x2="53.0182" y2="49.574" gradientUnits="userSpaceOnUse">
<stop stop-color="#F6C067"/>
<stop offset="0.1247" stop-color="#F3BD62"/>
<stop offset="0.2621" stop-color="#EBB355"/>
<stop offset="0.4052" stop-color="#DEA23F"/>
<stop offset="0.4787" stop-color="#D69731"/>
<stop offset="0.4794" stop-color="#D89A35"/>
<stop offset="0.4881" stop-color="#E8B761"/>
<stop offset="0.4959" stop-color="#F4CC80"/>
<stop offset="0.5025" stop-color="#FBD993"/>
<stop offset="0.507" stop-color="#FEDE9A"/>
<stop offset="0.9925" stop-color="#FFFAEF"/>
</linearGradient>
<linearGradient id="paint17_linear_2492_701" x1="53.0164" y1="56.7188" x2="53.0164" y2="49.5727" gradientUnits="userSpaceOnUse">
<stop stop-color="#F6C067"/>
<stop offset="0.1247" stop-color="#F3BD62"/>
<stop offset="0.2621" stop-color="#EBB355"/>
<stop offset="0.4052" stop-color="#DEA23F"/>
<stop offset="0.4787" stop-color="#D69731"/>
<stop offset="0.4794" stop-color="#D89A35"/>
<stop offset="0.4881" stop-color="#E8B761"/>
<stop offset="0.4959" stop-color="#F4CC80"/>
<stop offset="0.5025" stop-color="#FBD993"/>
<stop offset="0.507" stop-color="#FEDE9A"/>
<stop offset="0.9925" stop-color="#FFFAEF"/>
</linearGradient>
<linearGradient id="paint18_linear_2492_701" x1="53.0163" y1="56.7214" x2="53.0163" y2="49.5753" gradientUnits="userSpaceOnUse">
<stop stop-color="#F6C067"/>
<stop offset="0.1247" stop-color="#F3BD62"/>
<stop offset="0.2621" stop-color="#EBB355"/>
<stop offset="0.4052" stop-color="#DEA23F"/>
<stop offset="0.4787" stop-color="#D69731"/>
<stop offset="0.4794" stop-color="#D89A35"/>
<stop offset="0.4881" stop-color="#E8B761"/>
<stop offset="0.4959" stop-color="#F4CC80"/>
<stop offset="0.5025" stop-color="#FBD993"/>
<stop offset="0.507" stop-color="#FEDE9A"/>
<stop offset="0.9925" stop-color="#FFFAEF"/>
</linearGradient>
<clipPath id="clip0_2492_701">
<rect width="104" height="104" fill="white"/>
</clipPath>
</defs>
</svg>
