<svg xmlns="http://www.w3.org/2000/svg" width="104" height="104" fill="none"><g clip-path="url(#a)"><path fill="#FFF2D5" d="M52.043 102.309c-13.445 0-26.114-5.233-35.622-14.74S1.681 65.417 1.681 51.945 6.94 25.858 16.446 16.325c9.508-9.508 22.15-14.741 35.596-14.741s26.089 5.233 35.622 14.74c9.508 9.508 14.741 22.15 14.741 35.622s-5.233 26.115-14.74 35.622c-9.509 9.508-22.151 14.741-35.623 14.741"/><path fill="url(#b)" d="M52.043 100.372c26.745 0 48.426-21.654 48.426-48.366 0-26.711-21.681-48.366-48.426-48.366C27.83 1.625 3.617 25.295 3.617 52.006c0 26.712 21.681 48.366 48.426 48.366"/><path fill="url(#c)" d="M49.138 38.387 40.42 4.772c9.298-2.373 20.339-.989 25.182.989l-9.686 31.638z"/><path stroke="url(#d)" stroke-miterlimit="10" stroke-width=".5" d="m39.74 3.766 24.926 96.577"/><path stroke="url(#e)" stroke-miterlimit="10" stroke-width=".5" d="m3.86 62.2 96.367-20.504"/><path stroke="url(#f)" stroke-miterlimit="10" stroke-width=".5" d="m17.185 17.092 69.713 69.713"/><path stroke="url(#g)" stroke-miterlimit="10" stroke-width=".5" d="m15.843 85.315 72.08-67.198"/><path stroke="url(#h)" stroke-miterlimit="10" stroke-width=".5" d="m5.553 37.42 92.978 29.055"/><path stroke="url(#i)" stroke-miterlimit="10" stroke-width=".5" d="M65.602 5.458 38.483 98.436"/><path fill="url(#j)" d="M52.712 66.842c-7.857 0-14.228-6.393-14.228-14.227 0-7.857 6.393-14.228 14.228-14.228 7.857 0 14.228 6.393 14.228 14.228.022 7.856-6.371 14.227-14.228 14.227"/><path fill="url(#k)" d="M52.712 65.13c6.912 0 12.516-5.603 12.516-12.516s-5.604-12.517-12.516-12.517c-6.913 0-12.517 5.604-12.517 12.517S45.799 65.13 52.712 65.13"/><path fill="url(#l)" d="M52.712 63.354c5.931 0 10.739-4.808 10.739-10.739 0-5.93-4.808-10.738-10.739-10.738-5.93 0-10.738 4.808-10.738 10.738 0 5.931 4.808 10.739 10.738 10.739"/><path fill="url(#m)" d="M43.96 55.337c.415.264.981.453 1.585.453.906 0 1.435-.491 1.435-1.17 0-.642-.378-1.02-1.322-1.36-1.132-.415-1.812-.981-1.812-1.963 0-1.095.906-1.887 2.228-1.887.717 0 1.208.15 1.547.34l-.264.717a2.8 2.8 0 0 0-1.321-.34c-.944 0-1.321.566-1.321 1.057 0 .642.415.982 1.396 1.321 1.17.453 1.775 1.02 1.775 2.039 0 1.057-.793 2-2.416 2-.68 0-1.397-.188-1.775-.452z"/><path fill="url(#n)" d="M49.17 49.598a9.4 9.4 0 0 1 1.698-.151c.868 0 1.548.188 1.925.566.378.34.605.83.605 1.435 0 .641-.19 1.132-.53 1.472-.49.49-1.245.755-2.113.755-.264 0-.529 0-.717-.076v2.794h-.906v-6.795zm.905 3.322c.19.038.453.075.755.075 1.095 0 1.737-.528 1.737-1.472 0-.906-.642-1.359-1.623-1.359-.378 0-.68.038-.83.076v2.68z"/><path fill="url(#o)" d="M55.51 49.521v6.946h-.906v-6.946z"/><path fill="url(#p)" d="M57.096 56.432v-6.947h.982l2.228 3.511c.528.83.906 1.548 1.246 2.265h.037a34 34 0 0 1-.113-2.831v-2.907h.83v6.946h-.905l-2.19-3.51a17.6 17.6 0 0 1-1.284-2.303h-.038c.038.868.076 1.698.076 2.869v2.944h-.869z"/><path stroke="#FFEFCE" d="M52.044 2.084c13.312 0 25.827 5.18 35.267 14.593v.001c9.414 9.414 14.595 21.93 14.595 35.269S96.726 77.8 87.311 87.214c-9.414 9.414-21.928 14.595-35.267 14.595-13.314 0-25.855-5.18-35.269-14.595C7.361 77.801 2.181 65.286 2.18 51.947c0-13.338 5.206-25.828 14.62-35.269C26.216 7.264 38.73 2.084 52.045 2.084Z"/></g><defs><linearGradient id="b" x1="52.055" x2="52.055" y1="102.778" y2="6.065" gradientUnits="userSpaceOnUse"><stop stop-color="#230533"/><stop offset=".246" stop-color="#250636"/><stop offset=".393" stop-color="#2C093E"/><stop offset=".514" stop-color="#370E4C"/><stop offset=".62" stop-color="#481560"/><stop offset=".718" stop-color="#5D1F7B"/><stop offset=".808" stop-color="#772A9B"/><stop offset=".894" stop-color="#9638C1"/><stop offset=".973" stop-color="#B847EC"/><stop offset="1" stop-color="#C64DFD"/></linearGradient><linearGradient id="d" x1="64.666" x2="41.37" y1="100.33" y2="3.081" gradientUnits="userSpaceOnUse"><stop offset=".006" stop-color="#FEDE9A"/><stop offset=".036" stop-color="#FAD993"/><stop offset=".079" stop-color="#F0CA80"/><stop offset=".13" stop-color="#DFB361"/><stop offset=".186" stop-color="#C89235"/><stop offset=".197" stop-color="#C38B2C"/><stop offset=".364" stop-color="#A37425"/><stop offset=".527" stop-color="#805A1D"/><stop offset=".635" stop-color="#A07124"/><stop offset=".741" stop-color="#C38B2C"/><stop offset=".822" stop-color="#D4A34C"/><stop offset=".992" stop-color="#FEDE9A"/></linearGradient><linearGradient id="e" x1="100.205" x2="5.621" y1="40.122" y2="66.103" gradientUnits="userSpaceOnUse"><stop offset=".006" stop-color="#FEDE9A"/><stop offset=".036" stop-color="#FAD993"/><stop offset=".079" stop-color="#F0CA80"/><stop offset=".13" stop-color="#DFB361"/><stop offset=".186" stop-color="#C89235"/><stop offset=".197" stop-color="#C38B2C"/><stop offset=".364" stop-color="#A37425"/><stop offset=".527" stop-color="#805A1D"/><stop offset=".635" stop-color="#A07124"/><stop offset=".741" stop-color="#C38B2C"/><stop offset=".822" stop-color="#D4A34C"/><stop offset=".992" stop-color="#FEDE9A"/></linearGradient><linearGradient id="f" x1="86.437" x2="16.183" y1="88.262" y2="17.079" gradientUnits="userSpaceOnUse"><stop offset=".006" stop-color="#FEDE9A"/><stop offset=".036" stop-color="#FAD993"/><stop offset=".079" stop-color="#F0CA80"/><stop offset=".13" stop-color="#DFB361"/><stop offset=".186" stop-color="#C89235"/><stop offset=".197" stop-color="#C38B2C"/><stop offset=".364" stop-color="#A37425"/><stop offset=".527" stop-color="#805A1D"/><stop offset=".635" stop-color="#A07124"/><stop offset=".741" stop-color="#C38B2C"/><stop offset=".822" stop-color="#D4A34C"/><stop offset=".992" stop-color="#FEDE9A"/></linearGradient><linearGradient id="g" x1="86.46" x2="16.689" y1="16.999" y2="84.875" gradientUnits="userSpaceOnUse"><stop offset=".006" stop-color="#FEDE9A"/><stop offset=".036" stop-color="#FAD993"/><stop offset=".079" stop-color="#F0CA80"/><stop offset=".13" stop-color="#DFB361"/><stop offset=".186" stop-color="#C89235"/><stop offset=".197" stop-color="#C38B2C"/><stop offset=".364" stop-color="#A37425"/><stop offset=".527" stop-color="#805A1D"/><stop offset=".635" stop-color="#A07124"/><stop offset=".741" stop-color="#C38B2C"/><stop offset=".822" stop-color="#D4A34C"/><stop offset=".992" stop-color="#FEDE9A"/></linearGradient><linearGradient id="h" x1=".855" x2="102.694" y1="38.322" y2="67.445" gradientUnits="userSpaceOnUse"><stop offset=".006" stop-color="#FEDE9A"/><stop offset=".036" stop-color="#FAD993"/><stop offset=".079" stop-color="#F0CA80"/><stop offset=".13" stop-color="#DFB361"/><stop offset=".186" stop-color="#C89235"/><stop offset=".197" stop-color="#C38B2C"/><stop offset=".364" stop-color="#A37425"/><stop offset=".527" stop-color="#805A1D"/><stop offset=".635" stop-color="#A07124"/><stop offset=".741" stop-color="#C38B2C"/><stop offset=".822" stop-color="#D4A34C"/><stop offset=".992" stop-color="#FEDE9A"/></linearGradient><linearGradient id="i" x1="52.041" x2="54.16" y1="51.953" y2="52.559" gradientUnits="userSpaceOnUse"><stop offset=".006" stop-color="#FEDE9A"/><stop offset=".036" stop-color="#FAD993"/><stop offset=".079" stop-color="#F0CA80"/><stop offset=".13" stop-color="#DFB361"/><stop offset=".186" stop-color="#C89235"/><stop offset=".197" stop-color="#C38B2C"/><stop offset=".364" stop-color="#A37425"/><stop offset=".527" stop-color="#805A1D"/><stop offset=".635" stop-color="#A07124"/><stop offset=".741" stop-color="#C38B2C"/><stop offset=".822" stop-color="#D4A34C"/><stop offset=".992" stop-color="#FEDE9A"/></linearGradient><linearGradient id="j" x1="52.721" x2="52.721" y1="66.802" y2="38.34" gradientUnits="userSpaceOnUse"><stop stop-color="#C38B2C"/><stop offset=".04" stop-color="#A07124"/><stop offset=".082" stop-color="#805A1D"/><stop offset=".127" stop-color="#A37425"/><stop offset=".174" stop-color="#C38B2C"/><stop offset=".189" stop-color="#CC973C"/><stop offset=".253" stop-color="#F0CA80"/><stop offset=".282" stop-color="#FEDE9A"/><stop offset=".302" stop-color="#F2CD83"/><stop offset=".333" stop-color="#E1B564"/><stop offset=".365" stop-color="#D4A24B"/><stop offset=".4" stop-color="#CA953A"/><stop offset=".436" stop-color="#C58E2F"/><stop offset=".48" stop-color="#C38B2C"/><stop offset=".489" stop-color="#C89235"/><stop offset=".536" stop-color="#DFB361"/><stop offset=".578" stop-color="#F0CA80"/><stop offset=".613" stop-color="#FAD993"/><stop offset=".638" stop-color="#FEDE9A"/><stop offset=".698" stop-color="#D4A34C"/><stop offset=".726" stop-color="#C38B2C"/><stop offset=".775" stop-color="#A07124"/><stop offset=".825" stop-color="#805A1D"/><stop offset=".869" stop-color="#A37425"/><stop offset=".913" stop-color="#C38B2C"/><stop offset=".917" stop-color="#C89235"/><stop offset=".942" stop-color="#DFB361"/><stop offset=".963" stop-color="#F0CA80"/><stop offset=".982" stop-color="#FAD993"/><stop offset=".994" stop-color="#FEDE9A"/></linearGradient><linearGradient id="k" x1="52.721" x2="52.721" y1="62.801" y2="37.769" gradientUnits="userSpaceOnUse"><stop stop-color="#230533"/><stop offset=".246" stop-color="#250636"/><stop offset=".393" stop-color="#2C093E"/><stop offset=".514" stop-color="#370E4C"/><stop offset=".62" stop-color="#481560"/><stop offset=".718" stop-color="#5D1F7B"/><stop offset=".808" stop-color="#772A9B"/><stop offset=".894" stop-color="#9638C1"/><stop offset=".973" stop-color="#B847EC"/><stop offset="1" stop-color="#C64DFD"/></linearGradient><linearGradient id="l" x1="52.729" x2="52.714" y1="43.845" y2="63.349" gradientUnits="userSpaceOnUse"><stop stop-color="#fff"/><stop offset=".99" stop-color="#fff" stop-opacity="0"/></linearGradient><linearGradient id="m" x1="53.018" x2="53.018" y1="56.72" y2="49.574" gradientUnits="userSpaceOnUse"><stop stop-color="#F6C067"/><stop offset=".125" stop-color="#F3BD62"/><stop offset=".262" stop-color="#EBB355"/><stop offset=".405" stop-color="#DEA23F"/><stop offset=".479" stop-color="#D69731"/><stop offset=".479" stop-color="#D89A35"/><stop offset=".488" stop-color="#E8B761"/><stop offset=".496" stop-color="#F4CC80"/><stop offset=".502" stop-color="#FBD993"/><stop offset=".507" stop-color="#FEDE9A"/><stop offset=".993" stop-color="#FFFAEF"/></linearGradient><linearGradient id="n" x1="53.018" x2="53.018" y1="56.72" y2="49.574" gradientUnits="userSpaceOnUse"><stop stop-color="#F6C067"/><stop offset=".125" stop-color="#F3BD62"/><stop offset=".262" stop-color="#EBB355"/><stop offset=".405" stop-color="#DEA23F"/><stop offset=".479" stop-color="#D69731"/><stop offset=".479" stop-color="#D89A35"/><stop offset=".488" stop-color="#E8B761"/><stop offset=".496" stop-color="#F4CC80"/><stop offset=".502" stop-color="#FBD993"/><stop offset=".507" stop-color="#FEDE9A"/><stop offset=".993" stop-color="#FFFAEF"/></linearGradient><linearGradient id="o" x1="53.017" x2="53.017" y1="56.718" y2="49.572" gradientUnits="userSpaceOnUse"><stop stop-color="#F6C067"/><stop offset=".125" stop-color="#F3BD62"/><stop offset=".262" stop-color="#EBB355"/><stop offset=".405" stop-color="#DEA23F"/><stop offset=".479" stop-color="#D69731"/><stop offset=".479" stop-color="#D89A35"/><stop offset=".488" stop-color="#E8B761"/><stop offset=".496" stop-color="#F4CC80"/><stop offset=".502" stop-color="#FBD993"/><stop offset=".507" stop-color="#FEDE9A"/><stop offset=".993" stop-color="#FFFAEF"/></linearGradient><linearGradient id="p" x1="53.017" x2="53.017" y1="56.721" y2="49.574" gradientUnits="userSpaceOnUse"><stop stop-color="#F6C067"/><stop offset=".125" stop-color="#F3BD62"/><stop offset=".262" stop-color="#EBB355"/><stop offset=".405" stop-color="#DEA23F"/><stop offset=".479" stop-color="#D69731"/><stop offset=".479" stop-color="#D89A35"/><stop offset=".488" stop-color="#E8B761"/><stop offset=".496" stop-color="#F4CC80"/><stop offset=".502" stop-color="#FBD993"/><stop offset=".507" stop-color="#FEDE9A"/><stop offset=".993" stop-color="#FFFAEF"/></linearGradient><radialGradient id="c" cx="0" cy="0" r="1" gradientTransform="matrix(.96852 35.59273 -24.42176 .66454 53.012 1.806)" gradientUnits="userSpaceOnUse"><stop offset=".251" stop-color="#C64DFD"/><stop offset=".615" stop-color="#E612C4"/><stop offset="1" stop-color="#5D1F7B"/></radialGradient><clipPath id="a"><path fill="#fff" d="M0 0h104v104H0z"/></clipPath></defs></svg>