<svg width="520" height="520" viewBox="0 0 520 520" fill="none" xmlns="http://www.w3.org/2000/svg">
<path fill-rule="evenodd" clip-rule="evenodd" d="M259.798 259.912L12.5127 340.411C-2.92069 276.398 -5.376 254.125 12.5127 179.764L259.798 259.912Z" fill="#BBBBBB"/>
<path fill-rule="evenodd" clip-rule="evenodd" d="M107.042 470.367L76 443.885C32.1552 392.499 31.2783 385.484 12.5127 340.411L259.798 260.088L107.042 470.367Z" fill="#5A5A5A"/>
<path fill-rule="evenodd" clip-rule="evenodd" d="M259.797 259.913V520C181.052 513.862 160.884 503.339 106.867 470.368L259.797 259.913Z" fill="#BBBBBB"/>
<path fill-rule="evenodd" clip-rule="evenodd" d="M259.797 259.913L412.553 470.368C368.533 497.376 364.85 501.41 300.31 516.843L259.622 520V259.913" fill="#5A5A5A"/>
<path fill-rule="evenodd" clip-rule="evenodd" d="M259.798 259.913L507.083 340.236C487.966 386.536 496.385 370.051 470.078 412.668C437.457 450.725 450.611 437.572 412.553 470.192L259.798 259.913Z" fill="#BBBBBB"/>
<path fill-rule="evenodd" clip-rule="evenodd" d="M259.798 259.912L507.083 179.589C522.516 243.602 524.971 265.875 507.083 340.236L259.798 259.912Z" fill="#5A5A5A"/>
<path fill-rule="evenodd" clip-rule="evenodd" d="M507.258 179.589L259.973 259.912L412.729 49.4573C463.413 92.9513 478.145 109.262 507.258 179.589Z" fill="#BBBBBB"/>
<path fill-rule="evenodd" clip-rule="evenodd" d="M259.798 259.912V0C325.565 5.26138 347.488 9.64587 412.553 49.6323L259.798 259.912Z" fill="#5A5A5A"/>
<path fill-rule="evenodd" clip-rule="evenodd" d="M259.797 259.912L107.042 49.6323C162.988 15.258 183.157 5.9629 259.797 0V259.912Z" fill="#BBBBBB"/>
<path fill-rule="evenodd" clip-rule="evenodd" d="M259.798 259.912L12.5127 179.588C38.1181 118.03 49.167 98.9139 107.042 49.6323L259.798 259.912Z" fill="#5A5A5A"/>
</svg>
